<?xml version="1.0" encoding="UTF-8" standalone="no"?>
<svg
   xmlns:svg="http://www.w3.org/2000/svg"
   xmlns="http://www.w3.org/2000/svg"
   id="svg8"
   version="1.1"
   viewBox="0 0 88.851997 89.252998"
   height="89.252998mm"
   width="88.851997mm">
  <g>
    <path
       id="path24"
       d="m 13.171885,88.679169 c -2.81007,-1.47881 -4.3816695,-3.84052 -4.7035295,-7.06816 l -0.23536,-2.36025 -2.01925,-0.59871 c -4.48987,-1.33125 -6.55726002,-3.46852 -6.16732002,-6.37574 0.10089,-0.75218 0.89731,-2.75414 1.76982002,-4.4488 4.31135,-8.37384 6.14208,-19.69419 6.46015,-39.94647 0.10691,-6.80737 0.35256,-12.6964 0.55742,-13.36347 0.47912,-1.56009 2.5116595,-3.78319 4.3139995,-4.7184901 1.22561,-0.636 2.22074,-0.76732 6.81504,-0.89929 l 5.37986,-0.15453 5.6e-4,-2.33836 c 6.4e-4,-2.79566 0.72024,-4.45042 2.43286,-5.59452002 2.31997,-1.549836 5.56907,-0.746606 7.09349,1.75363002 0.52884,0.86739 0.70133,1.7779 0.70233,3.7074 l 10e-4,2.55763 11.37708,-10e-4 11.377077,-10e-4 0.0299,-2.59675 c 0.0352,-3.05792 0.86304,-4.75183 2.76302,-5.65343002 3.96322,-1.88066598 7.61405,1.00351002 7.61405,6.01516002 v 2.23756 h 6.09673 c 6.80373,0 8.92184,0.36921 10.93727,1.9064501 0.71116,0.54243 1.69475,1.80735 2.18576,2.81094 l 0.89275,1.82471 0.005,33.79234 c 0.005,32.27083 -0.0249,33.85886 -0.65582,35.26992 -0.78879,1.76425 -2.21482,3.24366 -4.0088,4.15889 -1.26426,0.64497 -2.59995,0.66956 -35.635177,0.65596 -30.56932,-0.0126 -34.43739,-0.075 -35.38001,-0.57108 z m 41.421987,-2.73658 c -0.0808,-0.0807 -2.448867,-0.47559 -5.262267,-0.87745 -2.8134,-0.40186 -9.56028,-1.37254 -14.99306,-2.15705 -5.43277,-0.78452 -11.0684,-1.58213 -12.52361,-1.77247 -1.45521,-0.19034 -3.59833,-0.49483 -4.7625,-0.67663 -1.16416,-0.1818 -2.79135,-0.41996 -3.61597,-0.52925 l -1.49931,-0.1987 v 1.25641 c 0,2.27622 1.50023,4.25679 3.60153,4.75464 1.17096,0.27743 39.328387,0.47332 39.055187,0.2005 z m 28.85201,-0.92774 c 1.93947,-1.21122 1.86905,-0.0966 1.86905,-29.58502 v -27.19929 l -36.600687,0.0898 -36.6007,0.0898 -0.24676,5.29167 c -0.76495,16.4033 -3.3538195,29.48863 -7.1956395,36.37001 -0.66036,1.18281 -1.20065,2.38852 -1.20065,2.67935 0,0.77111 1.05144,1.59994 2.83973,2.23851 1.28127,0.45752 38.3753295,6.00643 54.3102665,8.12429 2.23132,0.29655 4.37444,0.59282 4.7625,0.65838 0.38805,0.0656 2.68993,0.39431 5.11527,0.73059 2.42535,0.33627 5.7591,0.80387 7.40834,1.03912 3.01,0.42935 4.18686,0.31732 5.53928,-0.52728 z M 14.406605,58.927609 v -14.81879 h 13.22917 13.22916 v -6.70278 -6.70277 h 21.343057 21.34305 v 14.81666 14.81667 h -6.5186 -6.51861 l -0.096,6.61458 -0.096,6.61459 -27.957637,0.0903 -27.95764,0.0903 z m 13.05278,6.52427 v -5.11528 h -5.11528 -5.11528 v 4.88009 c 0,2.68405 0.10583,4.98593 0.23519,5.11528 0.12935,0.12935 2.43122,0.23518 5.11527,0.23518 h 4.8801 z m 13.40555,0 v -5.11528 h -5.11528 -5.11527 v 5.11528 5.11527 h 5.11527 5.11528 z m 13.052777,0 v -5.11528 h -5.115277 -5.11528 v 5.11528 5.11527 h 5.11528 5.115277 z m 13.40555,0 v -5.11528 h -5.11527 -5.11528 v 5.11528 5.11527 h 5.11528 5.11527 z M 27.459385,52.213019 v -4.94857 l -5.02709,0.0979 -5.02708,0.0979 -0.0982,4.8507 -0.0982,4.85069 h 5.12523 5.12524 z m 13.40555,0.01 v -4.93888 h -5.11528 -5.11527 v 4.93888 4.93889 h 5.11527 5.11528 z m 13.052777,0 v -4.93888 h -5.115277 -5.11528 v 4.93888 4.93889 h 5.11528 5.115277 z m 13.40555,0 v -4.93888 h -5.11527 -5.11528 v 4.93888 4.93889 h 5.11528 5.11527 z m 13.40556,0 v -4.93888 h -5.11528 -5.11528 v 4.93888 4.93889 h 5.11528 5.11528 z m -26.81111,-13.23886 v -5.12497 l -5.027077,0.0979 -5.02709,0.0979 -0.0993,4.56745 c -0.0546,2.5121 -0.0199,4.77429 0.0771,5.02708 0.13332,0.34744 1.38465,0.45963 5.12634,0.45963 h 4.949957 z m 13.32705,0.0979 -0.0979,-5.02708 -5.02709,-0.0979 -5.02708,-0.0979 v 4.88978 c 0,2.68938 0.10583,4.99562 0.23519,5.12497 0.12935,0.12935 2.43558,0.23518 5.12496,0.23518 h 4.88978 z m 13.30767,-0.0882 v -4.93888 l -5.02708,-0.0979 -5.02709,-0.0979 v 5.13465 5.13465 l 5.02709,-0.0979 5.02708,-0.0979 z"
       style="stroke-width:0" />
  </g>
  <style>
    #path24 {
      fill: #4968B1;
    }
  </style>
</svg>
